<?xml version="1.0" encoding="UTF-8"?>
<svg id="_圖層_2" data-name="圖層 2" xmlns="http://www.w3.org/2000/svg" viewBox="0 0 772.78 231.65">
  <defs>
    <style>
      .cls-1 {
        letter-spacing: -.06em;
      }

      .cls-2 {
        fill: none;
        stroke: #000;
        stroke-dasharray: 0 10;
        stroke-miterlimit: 10;
      }

      .cls-3, .cls-4 {
        fill: #11100e;
      }

      .cls-5 {
        fill: #fdefd4;
      }

      .cls-6 {
        letter-spacing: -.44em;
      }

      .cls-4 {
        font-family: SourceHanSansCN-Normal-GBpc-EUC-H, 'Source Han Sans CN';
        font-size: 13.08px;
      }

      .cls-7 {
        letter-spacing: -.5em;
      }
    </style>
  </defs>
  <g id="hander">
    <g>
      <rect class="cls-5" x="0" y="0" width="772.78" height="231.65" rx="93.72" ry="93.72"/>
      <g>
        <path class="cls-3" d="m533.53,42.9h10.81c.57,0,1.04.27,1.42.8.17.3.25.56.25.81,0,1.37-.02,5.4-.04,12.1,0,.08-.05.19-.16.31-.11.1-.22.14-.34.14h-10.83c-.5,0-.95-.23-1.33-.69-.21-.33-.31-.63-.31-.91,0-1.58.01-5.61.04-12.1,0-.08.05-.19.14-.31.11-.1.23-.14.35-.14Zm2.43,1.32c0,.1,0,.36-.01.75,0,1.39-.01,4.83-.03,10.31,0,.06.05.16.14.28.12.11.24.17.37.17h6.61c0-.11,0-.37.01-.79,0-1.21,0-4.64.02-10.26,0-.11-.08-.23-.23-.37-.1-.06-.19-.08-.27-.08h-6.61Z"/>
        <path class="cls-3" d="m548.73,42.9h11.92c.36,0,.55.03.58.1.09.05.16.14.21.29.01.05.02.08.02.09.02,2,.03,3.16.03,3.49,0,.5-.15,1.02-.46,1.56-.11.21-.3.45-.56.7-.23.22-.46.39-.68.51-.04.03-.15.08-.32.17h0c.34.13.7.38,1.1.76.32.36.56.72.69,1.08.15.41.23.78.23,1.13l-.03,3.81c0,.16-.1.3-.31.43-.08.03-.14.04-.18.04h-12.24c-.17-.02-.26-.11-.26-.26v-.82c0-.11.08-.19.24-.25h9.82c.01-1.84.02-2.87.02-3.1,0-1.06-.18-1.82-.54-2.31h-9.24c-.15,0-.25-.08-.3-.23v-.87c.03-.15.11-.23.23-.23,0,0,.03-.01.09-.01h9.27s.09,0,.13.02c.23-.49.35-1.17.35-2.03,0-.24,0-1.16-.02-2.75h-9.8c-.11,0-.2-.07-.26-.22v-.85c.02-.17.11-.26.26-.26Z"/>
      </g>
      <g>
        <path class="cls-3" d="m303.44,42.96h10.81c.57,0,1.05.27,1.42.8.17.3.25.56.25.81,0,1.37-.02,5.4-.04,12.1,0,.08-.05.19-.16.31-.11.1-.22.14-.34.14h-10.83c-.5,0-.95-.23-1.33-.69-.21-.33-.31-.63-.31-.91,0-1.58.01-5.61.04-12.1,0-.08.05-.19.14-.31.11-.1.23-.14.35-.14Zm2.43,1.32c0,.1,0,.36-.01.75,0,1.39-.01,4.83-.03,10.31,0,.06.04.16.13.28.12.11.24.17.37.17h6.61c0-.11,0-.37.01-.79,0-1.21,0-4.64.02-10.26,0-.11-.08-.23-.23-.37-.1-.06-.19-.08-.27-.08h-6.61Z"/>
        <path class="cls-3" d="m318.66,42.9h10.74c.32,0,.79,0,1.4.01.17.03.3.09.39.17.15.12.22.24.22.38v3.6c0,.17-.1.34-.31.5-.44.45-2.44,2.43-6,5.94-1.54,1.52-2.31,2.28-2.32,2.3h8.36c.12,0,.21.07.27.22v.85c0,.1-.08.19-.23.26h-12.48c-.19,0-.3-.08-.32-.23h0c0-.13.11-.29.32-.47.53-.54,1.95-1.96,4.25-4.27,2.35-2.37,4.22-4.25,5.61-5.65.06-.1.09-.19.09-.27v-1.74c0-.11-.04-.19-.13-.24-.04-.02-.08-.03-.1-.03h-9.75c-.14,0-.23-.07-.27-.21v-.86c.01-.17.1-.26.26-.26Z"/>
      </g>
      <g>
        <path class="cls-3" d="m82.75,42.9h10.81c.57,0,1.05.27,1.42.8.17.3.25.56.25.81,0,1.37-.02,5.4-.04,12.1,0,.08-.05.19-.16.31-.11.1-.22.14-.34.14h-10.83c-.5,0-.95-.23-1.33-.69-.21-.33-.31-.63-.31-.91,0-1.58.01-5.61.04-12.1,0-.08.05-.19.14-.31.11-.1.23-.14.35-.14Zm2.43,1.32c0,.1,0,.36-.01.75,0,1.39-.01,4.83-.03,10.31,0,.06.04.16.13.28.12.11.24.17.37.17h6.61c0-.11,0-.37.01-.79,0-1.21,0-4.64.02-10.26,0-.11-.08-.23-.23-.37-.1-.06-.19-.08-.27-.08h-6.61Z"/>
        <path class="cls-3" d="m99.32,42.91h1.54c.26,0,.48.11.64.33.03.05.05.11.05.18,0,3.41.01,7.79.01,13.15,0,.14-.12.29-.37.42-.12.04-.22.06-.32.06h-1.53c-.29,0-.51-.11-.66-.34-.03-.08-.04-.14-.04-.2v-7.95c0-1.35,0-3.07-.01-5.17,0-.12.08-.23.23-.35.15-.09.31-.13.47-.13Z"/>
      </g>
      <line class="cls-2" x1="500.98" y1="57.26" x2="500.98" y2="178.41"/>
      <line class="cls-2" x1="275.5" y1="56.26" x2="275.5" y2="177.41"/>
      <g>
        <g>
          <g>
            <path class="cls-3" d="m188.94,69.22c-11.61,0-21.06-9.45-21.06-21.06,0-.88.71-1.59,1.59-1.59s1.59.71,1.59,1.59c0,9.86,8.02,17.89,17.89,17.89s17.89-8.02,17.89-17.89c0-.88.71-1.59,1.59-1.59s1.59.71,1.59,1.59c0,11.62-9.45,21.06-21.06,21.06Z"/>
            <path class="cls-3" d="m149.78,69.22c-11.61,0-21.06-9.45-21.06-21.06,0-.88.71-1.59,1.59-1.59s1.59.71,1.59,1.59c0,9.86,8.02,17.89,17.89,17.89s17.89-8.02,17.89-17.89c0-.88.71-1.59,1.59-1.59s1.59.71,1.59,1.59c0,11.62-9.45,21.06-21.06,21.06Z"/>
          </g>
          <path class="cls-3" d="m182.9,109.83h-27.09c-3.69,0-6.69-3-6.69-6.69v-35.71h3.18v35.71c0,1.94,1.58,3.51,3.51,3.51h27.09c1.94,0,3.51-1.58,3.51-3.51v-35.71h3.18v35.71c0,3.69-3,6.69-6.69,6.69Z"/>
          <g>
            <path class="cls-3" d="m160.36,74.29h2.31c.22,0,.37.14.47.42,0,.05.01.08.01.11v.05c0,.06-.14.63-.43,1.71h3.12c.22,0,.36.08.4.24,0,.02.01.04.01.07v1.13c0,.14-.09.23-.26.3-.05,0-.09.01-.12.01h-3.59s-.09.21-.18.63c-.02.04-.28,1.03-.78,3-.24.39-.54.58-.88.58h-2.19c-.24,0-.41-.11-.51-.34-.02-.06-.03-.11-.03-.15v-.03c0-.08.19-.86.58-2.33.8-3.12,1.23-4.76,1.3-4.93.22-.32.47-.49.76-.49Zm-1.79,8.69h7.34c.19,0,.31.1.35.31v1.09c0,.16-.09.27-.26.34h-2.5c0,2.48-.01,4.24-.01,5.28h2.43c.22.02.34.13.34.32v1.09c-.05.21-.16.31-.35.31h-2.42c0,2.19-.01,3.68-.01,4.49,0,.3.17.51.51.65h.15s1.13.01,1.13.01c.15,0,.26.1.32.3v1.11c0,.14-.09.25-.28.32h-3.47c-.68,0-1.23-.31-1.63-.93-.22-.39-.34-.79-.34-1.2v-4.75h-1.35c-.15,0-.27-.09-.34-.28,0,0-.01-.04-.01-.08v-1c0-.17.09-.29.26-.36h1.46v-4.63c0-.13,0-.34.01-.65h-1.39c-.14,0-.25-.1-.32-.3,0,0-.01-.04-.01-.08v-1c0-.22.13-.34.39-.36Zm11.04-8.69h2.48c.32,0,.54.18.63.55.09,1.29.2,2.41.32,3.36,0,0,.02.07.04.22h7.73c.2,0,.32.08.38.24,0,.02.01.04.01.07v1.09c0,.16-.09.27-.27.34-.05,0-.1.01-.14.01h-7.45c.21,1.19.45,2.33.74,3.44h6.81c.13,0,.23.09.3.27v1.15c0,.13-.09.24-.28.31h-6.36c.51,1.65,1.05,3.11,1.62,4.39,0,.02,0,.03.03.03.63-1.01,1.16-1.97,1.59-2.87.14-.19.31-.28.51-.28h2.25c.28,0,.48.16.61.47.02.06.03.11.03.15v.05c-.04.31-.26.93-.66,1.85-.31.68-.73,1.43-1.25,2.23-.33.49-.79,1.09-1.36,1.78.54.94,1.24,1.98,2.11,3.12.7.82,1.07,1.33,1.09,1.54.05.11.08.23.08.38,0,.21-.12.35-.36.43-.07,0-.13.01-.18.01h-.01c-.53,0-1.34-.45-2.44-1.36-.26-.18-.83-.72-1.71-1.61-.33-.37-.5-.55-.51-.55-.8.7-1.58,1.29-2.35,1.77-1.91,1.17-3.7,1.75-5.37,1.75h-.05c-.54,0-.88-.09-1.01-.27-.03-.06-.04-.11-.04-.13,0-.31.58-.81,1.74-1.47.4-.26.87-.57,1.4-.92.7-.48,1.49-1.1,2.37-1.86.94-.9,1.42-1.38,1.42-1.43-1.01-1.56-1.88-3.3-2.63-5.24-.21-.58-.43-1.22-.66-1.94h-3.43c-.2,0-.33-.09-.4-.27v-.07s-.01-1.04-.01-1.04c0-.19.1-.31.31-.35h3.04c-.28-1.06-.52-2.21-.73-3.44h-2.15c-.23,0-.37-.08-.45-.24-.02-.05-.03-.09-.03-.11v-1.03c0-.18.1-.3.3-.36.04,0,.08-.01.12-.01h1.92c-.22-1.9-.32-3.07-.32-3.52,0-.22.13-.4.39-.57.09-.03.17-.04.24-.04Zm6.07,0h2.55c.31,0,.57.21.76.63.4,1.59.61,2.41.61,2.44v.05c0,.24-.15.41-.46.5-.05,0-.11.01-.18.01h-2.38c-.37,0-.63-.2-.8-.59-.42-1.59-.63-2.43-.63-2.51,0-.27.14-.45.43-.53.04,0,.07-.01.09-.01Z"/>
            <path class="cls-3" d="m177.66,95.71c.04,1.09,1.32,2.29,1.81,2.57,5.02,2.85,4.8-.4,4.03-2.97-.75-2.51-2.69-2.86-4.81-.92-1.23,1.12-1.05.76-1.03,1.32Zm2.26-.49c.29-.24.6-.41.94-.58,1.31-.64,3.09,3.81-.28,2.22-.01-.07-1.62-.85-.66-1.64Z"/>
            <path class="cls-3" d="m179.37,96.07s-2.78,3.48-4.38,2.07c-.35-.3-.38-1.37.06-1.28.14.03.57.28.57.29.28,1.26,1.92-1.57,1.92-1.57l1.84.49Z"/>
            <path class="cls-3" d="m167.5,96.2l-1.07,1.61c-.34.52-.93.81-1.55.77-.35-.02-.77-.07-1.26-.18l-.1-1.38,3.25-1.4c.06-.02.12-.04.18-.04h0c.35-.02.62.29.56.63Z"/>
          </g>
        </g>
        <text class="cls-4" transform="translate(113.02 144.42) scale(1 1.1)"><tspan x="0" y="0">活动期间净入金达</tspan><tspan x="0" y="22.8">到要求即可获得相</tspan><tspan x="6.54" y="45.6">应数量抽奖机会</tspan></text>
      </g>
      <g>
        <g>
          <path class="cls-3" d="m635.66,49.75h-24.24c-.88,0-1.59-.71-1.59-1.59s.71-1.59,1.59-1.59h24.24c.88,0,1.59.71,1.59,1.59s-.71,1.59-1.59,1.59Z"/>
          <g>
            <path class="cls-3" d="m602.49,74.08c2.41,2.44,3.4,6.1,2.59,9.76,1.21-.1,2.4.05,3.52.45,2.18.77,3.95,2.4,4.97,4.61,1.24,2.67,1.29,5.94.14,8.95-2,5.25-7.1,8.39-11.78,7.47l-4.31,10.98c-.25.64-.97.95-1.61.7-.64-.25-.95-.97-.7-1.61l4.72-12.01c.24-.62.94-.94,1.57-.72,3.71,1.3,8.11-1.25,9.8-5.7.91-2.39.89-4.95-.07-7.02-.74-1.6-2-2.77-3.54-3.31-1.29-.45-2.72-.45-4.13.01-.46.15-.98.02-1.3-.34-.33-.36-.42-.88-.23-1.32,1.73-4.11.39-8.59-3.12-10.43-2.87-1.5-6.51-.78-9.05,1.78-.29.29-.71.42-1.11.35-.41-.08-.75-.35-.91-.73-.73-1.7-2.02-2.95-3.62-3.51-3.71-1.3-8.11,1.25-9.8,5.7-.91,2.39-.88,4.95.08,7.02.74,1.6,2,2.77,3.54,3.31.32.11.58.35.72.65.14.31.15.66.03.97l-2.51,6.42c-.25.64-.97.96-1.61.71-.64-.25-.96-.97-.71-1.61l2.07-5.32c-1.64-.88-2.96-2.3-3.8-4.09-1.24-2.67-1.29-5.94-.14-8.95,2.17-5.69,7.98-8.9,12.95-7.15,1.76.62,3.25,1.8,4.29,3.41,3.21-2.43,7.35-2.92,10.73-1.15.88.46,1.67,1.05,2.34,1.73Z"/>
            <path class="cls-3" d="m646.04,74.08c-2.41,2.44-3.4,6.1-2.59,9.76-1.21-.1-2.4.05-3.52.45-2.18.77-3.95,2.4-4.97,4.61-1.24,2.67-1.29,5.94-.14,8.95,2,5.25,7.1,8.39,11.78,7.47l4.31,10.98c.25.64.97.95,1.61.7.64-.25.95-.97.7-1.61l-4.72-12.01c-.24-.62-.94-.94-1.57-.72-3.71,1.3-8.11-1.25-9.8-5.7-.91-2.39-.89-4.95.07-7.02.74-1.6,2-2.77,3.54-3.31,1.29-.45,2.72-.45,4.13.01.46.15.98.02,1.3-.34.33-.36.42-.88.23-1.32-1.73-4.11-.39-8.59,3.12-10.43,2.87-1.5,6.51-.78,9.05,1.78.29.29.71.42,1.11.35.41-.08.75-.35.91-.73.73-1.7,2.02-2.95,3.62-3.51,3.71-1.3,8.11,1.25,9.8,5.7.91,2.39.88,4.95-.08,7.02-.74,1.6-2,2.77-3.54,3.31-.32.11-.58.35-.72.65-.14.31-.15.66-.03.97l2.51,6.42c.25.64.97.96,1.61.71.64-.25.96-.97.71-1.61l-2.07-5.32c1.64-.88,2.96-2.3,3.8-4.09,1.24-2.67,1.29-5.94.14-8.95-2.17-5.69-7.98-8.9-12.95-7.15-1.76.62-3.25,1.8-4.29,3.41-3.21-2.43-7.35-2.92-10.73-1.15-.88.46-1.67,1.05-2.34,1.73Z"/>
            <path class="cls-3" d="m635.66,85.63h-24.24c-.88,0-1.59-.71-1.59-1.59s.71-1.59,1.59-1.59h24.24c.88,0,1.59.71,1.59,1.59s-.71,1.59-1.59,1.59Z"/>
            <g>
              <path class="cls-3" d="m621.82,63.14c.07.13.16.2.27.2l1.8.02c.21,0,.41-.13.59-.39.15-.34.41-1,.78-1.97l3.96.05c-.03.26-.08.49-.13.69-.12.48-.32.99-.59,1.53-.16.32-.38.67-.67,1.05-.19-.62-.3-.98-.34-1.05-.19-.28-.4-.43-.61-.43l-1.97-.03c-.21.08-.31.23-.29.45,0,.06.34,1.15,1.01,3.26-.74.54-1.48,1.02-2.24,1.42-.16.09-.31.2-.46.35-.15.17-.23.31-.22.41v.06s0,.04.02.05c.06.15.24.23.53.23h.04c.36,0,.93-.09,1.7-.28.82-.24,1.49-.49,1.99-.75,2.31-1.17,3.8-2.77,4.47-4.8.29-.84.41-1.88.33-3.11,0-.02,0-.05-.03-.11-.11-.23-.28-.35-.5-.35l-5.42-.07c.11-.27.16-.41.16-.43.15-.33.22-.55.22-.66v-.02c-.01-.2-.12-.31-.33-.35l-1.77-.02s-.05,0-.08.01c-.26.09-.45.26-.58.5-.92,2.35-1.4,3.57-1.43,3.68-.16.36-.24.59-.24.69v.05c0,.05.02.1.04.14Z"/>
              <path class="cls-3" d="m615.84,62.7l1.97.03c.22-.04.33-.17.32-.38v-.05c0-.07-.26-.88-.76-2.43-.15-.55-.27-.87-.33-.96-.19-.25-.38-.38-.59-.38l-1.9-.03s-.05,0-.08.01c-.19.1-.28.24-.27.43,0,.07.09.35.25.86.49,1.59.75,2.42.79,2.48.2.28.4.43.6.43Z"/>
              <path class="cls-3" d="m618.88,68.6c.11.3.3.46.59.46l1.78.02c.12,0,.21-.02.27-.05.18-.13.27-.29.26-.47-.15-2.57-.34-5.9-.59-9.99,0-.05-.02-.13-.06-.22-.14-.21-.29-.32-.45-.32l-1.94-.03c-.06,0-.12.02-.18.05-.2.14-.29.3-.28.47.14,2.38.34,5.7.59,9.98,0,.02,0,.05.02.09Z"/>
              <path class="cls-3" d="m614.93,68.41l1.94.03c.22,0,.41-.14.57-.44.04-.17.19-.98.45-2.44.21-1.14.32-1.73.32-1.79v-.03c0-.08-.03-.15-.08-.22-.06-.12-.21-.18-.44-.19l-1.68-.02c-.23,0-.39.05-.5.16-.16.17-.24.3-.23.4-.48,2.66-.72,4.01-.72,4.06v.05s.01.08.02.13c.1.21.22.31.35.31Z"/>
              <path class="cls-3" d="m632.6,75.23c-.9-2.01-2.39-2.11-3.68-.31-.05.07-.09.12-.13.17-.03-.03-.06-.05-.09-.08-.35-.33-.76-.77-1.25-1.3-.41-.5-.7-.9-.89-1.2l5.8.08s.06,0,.07,0c.14-.05.21-.15.2-.3l-.05-.89c-.07-.18-.16-.26-.27-.27l-7.52-.1c.17-.69.26-1.09.25-1.21v-.07s-.02-.08-.03-.11c-.1-.27-.27-.4-.49-.4l-2.12-.03c-.2,0-.34.11-.43.35-.12.57-.26,1.05-.41,1.44l-6.65-.09c-.15.06-.22.15-.21.28l.05.92c.06.17.17.25.3.25l5.82.08s0,.01,0,.01c-.2.4-.59.97-1.2,1.71-.52.58-.96,1.03-1.32,1.35-.84.72-1.64,1.29-2.39,1.72-.58.32-.86.61-.84.89,0,.02.01.06.03.11.08.15.27.22.55.22.24,0,.62-.06,1.14-.18.7-.17,1.33-.38,1.9-.61.87-.38,1.61-.79,2.2-1.21.33-.22.74-.56,1.24-1.02.23-.2.58-.6,1.04-1.19.17-.22.35-.5.57-.85h.01c.02.05.14.22.36.51.43.55.96,1.11,1.6,1.68.58.49,1.12.89,1.61,1.19.05.03.12.07.17.1-.33.52-.72.95-.87.38,0,0-.33-.22-.44-.24-.34-.08-.26.81.02,1.06.72.67,1.65.04,2.32-.63.46.22.97.44,1.52.65.08.03.15.05.22.07,1.05.45,1.77.59,2.23.5.02,0,.05,0,.07,0,.21-.03.33-.09.37-.2.63-.55.19-2-.37-3.24Zm-2.66.26c.18-.22.39-.4.61-.56.81-.6,2.5,2.31.67,2.01-.34-.22-.68-.45-1.02-.7-.13-.09-.27-.2-.41-.31-.01-.13.03-.28.15-.44Z"/>
            </g>
            <g>
              <path class="cls-3" d="m627.49,36.61h-8.18c-9.42,0-17.08,7.66-17.08,17.08v26.83c0,1.56.23,3.07.62,4.51l3.26-.16c-.45-1.37-.71-2.83-.71-4.35v-26.83c0-7.66,6.24-13.9,13.9-13.9h8.18c7.66,0,13.9,6.24,13.9,13.9v26.83c0,1.62-.29,3.18-.81,4.63h3.33c.42-1.47.65-3.02.65-4.63v-26.83c0-9.42-7.66-17.08-17.08-17.08Z"/>
              <path class="cls-3" d="m627.49,94.41h-8.18c-2.28,0-4.42-.56-6.32-1.54.02.18.03.3.05.33.05.12-.09,1.83-.25,3.08,2.01.84,4.22,1.3,6.53,1.3h8.18c3.06,0,5.93-.82,8.42-2.24l-.66-3.31c-2.22,1.5-4.89,2.37-7.76,2.37Z"/>
            </g>
          </g>
        </g>
        <text class="cls-4" transform="translate(581.66 142.97) scale(1 1.1)"><tspan x="0" y="0">抽奖结果将于</tspan><tspan x="-9.1" y="22.8">2024年02月09日</tspan><tspan x="-6.54" y="45.6">于活动页面公布</tspan></text>
      </g>
      <g>
        <g>
          <path class="cls-3" d="m395.93,85.85c-4.38,0-8.6-2.39-11.2-6.41-1,1.18-2.2,2.13-3.57,2.8-2.66,1.3-5.73,1.43-8.66.37-3.54-1.28-6.56-4.16-8.26-7.91-2.97-6.54-1.24-14,3.8-17.42l-6.1-13.78c-.36-.8,0-1.74.81-2.1.8-.36,1.74,0,2.1.81l6.68,15.08c.35.78.01,1.7-.76,2.07-4.52,2.2-6.15,8.49-3.63,14.03,1.35,2.98,3.7,5.25,6.45,6.24,2.12.76,4.31.68,6.19-.24,1.57-.77,2.85-2.07,3.7-3.77.28-.56.86-.91,1.48-.88.62.02,1.17.41,1.41.98,2.18,5.27,7.46,8.08,12.28,6.54,3.94-1.26,6.56-5.21,6.51-9.83,0-.53.25-1.02.69-1.32.43-.3.99-.36,1.48-.17,2.21.87,4.49.82,6.45-.13,4.52-2.2,6.15-8.49,3.63-14.03-1.36-2.98-3.71-5.25-6.45-6.24-2.11-.76-4.31-.68-6.19.24-.39.19-.83.21-1.24.06-.4-.15-.73-.45-.91-.85l-3.58-8.05c-.36-.8,0-1.74.81-2.1.8-.36,1.74,0,2.1.81l2.97,6.66c2.27-.7,4.75-.63,7.13.23,3.54,1.27,6.56,4.16,8.26,7.91,3.22,7.08.92,15.25-5.13,18.2-2.15,1.05-4.56,1.33-6.96.84-.67,5.1-3.95,9.3-8.6,10.79-1.21.39-2.45.57-3.67.57Z"/>
          <path class="cls-3" d="m387.74,104.63l1.06,1.17c.34.37.83.52,1.28.38.25-.08.56-.2.9-.38l-.16-1.19-2.63-.61s-.09-.01-.14,0h0c-.26.04-.41.36-.3.63Z"/>
          <path class="cls-3" d="m390.01,88.54s.43-.11.77-.94,2.04-.98,1.85.98l-2.62-.03Z"/>
          <path class="cls-3" d="m392.18,87.96c.2,0,.33.12.41.34.01.05.02.09.02.14v2.67s1.13.02,1.13.02c.12,0,.21.06.25.16.02.04.03.08.03.13v.8c0,.12-.07.21-.22.27l-1.18-.02v6.03s.02,0,.02,0l1.34-.16c.09,0,.16.08.19.24v.93c0,.19-.09.3-.26.34l-1.28.16v2.73c0,1.25-.43,2.21-1.32,2.88-.59.4-1.19.6-1.8.58-.16,0-.26-.05-.31-.15-.01-.02-.02-.05-.02-.07,0-.14.11-.33.33-.56.2-.23.34-.63.44-1.21.06-.38.09-.89.09-1.55v-2.3s-.01,0-.01,0c-.71.08-1.09.13-1.14.13-.07,0-.13-.07-.17-.2v-1.05c0-.13.08-.21.24-.26l1.08-.14v-6.43s-1.04-.02-1.04-.02c-.13,0-.22-.06-.27-.16-.01-.04-.02-.07-.02-.08v-.87c.03-.15.1-.23.2-.23,0,0,.02-.01.06,0l1.05.02v-2.7c0-.2,2.16-.41,2.16-.41Zm8.57-.41c.17,0,.3.13.39.37.01.04.02.08.02.12v.91c0,.59,0,1.44.02,2.52l3.03.06c.26,0,.42.15.5.43,0,.1,0,.17,0,.21l.03,13.83c0,.1-.03.19-.08.28-.1.14-.22.22-.36.21l-8.88-.16c-.2,0-.34-.13-.42-.38-.01-.05-.02-.11-.02-.17l-.03-13.92c0-.21.1-.36.31-.46.02-.01.07-.02.16-.03,1.62.04,2.72.06,3.29.07v-3.39c0-.28.11-.46.35-.53l1.69.03Zm-3.5,5.2v5s1.47.03,1.47.03v-5s-1.47-.03-1.47-.03Zm.01,6.35c0,1.26.01,2.25.02,2.94v2.74c.04.15.11.23.21.23l1.26.02v-4.18c0-.38-.01-.96-.02-1.74l-1.46-.03Zm3.93-6.28v5s1.91.02,1.91.02v-4.73c0-.13-.1-.21-.28-.26l-1.63-.02Zm0,6.35v5.92s1.89.02,1.89.02h.01c0-1.08,0-1.88,0-2.42v-3.5s-1.9-.02-1.9-.02Z"/>
          <path class="cls-3" d="m417.58,100.28c-.24-.39-.65-.6-1.07-.6-.22,0-.45.06-.66.19-.59.36-.77,1.14-.41,1.73.47.76.75,1.81.75,2.81,0,2.8-2.28,5.08-5.08,5.08h-29.54c-2.8,0-5.08-2.28-5.08-5.09,0-1,.28-1.85.9-2.74.39-.57.25-1.35-.32-1.75-.57-.39-1.35-.25-1.75.32-.9,1.31-1.35,2.67-1.35,4.18,0,4.19,3.41,7.59,7.59,7.59h29.54c4.19,0,7.59-3.41,7.59-7.6,0-1.46-.41-2.96-1.12-4.12Z"/>
          <g>
            <path class="cls-3" d="m384.28,78.79h-.32s.07.05.11.08h-.57c-1.28,0-2.42.58-3.21,1.48-1.11,1.21-1.06,2.67-1.06,2.78v21.26c0,.69.56,1.26,1.26,1.26s1.25-.56,1.25-1.26v-21.26c0-.97.79-1.76,1.76-1.76l2.85-.05-2.06-2.54Z"/>
            <path class="cls-3" d="m409.18,78.87h-2.29c-.45.96-1.24,1.93-1.75,2.51h4.04c.97,0,1.76.79,1.76,1.76v21.26c0,.69.56,1.26,1.26,1.26s1.25-.56,1.25-1.26v-21.26c0-2.35-1.91-4.27-4.27-4.27Z"/>
          </g>
        </g>
        <text class="cls-4" transform="translate(342.72 138.55) scale(1 1.1)"><tspan x="0" y="0">入金愈</tspan><tspan class="cls-1" x="39.24" y="0">多</tspan><tspan class="cls-6" x="51.48" y="0">，</tspan><tspan x="58.86" y="0">中奖机</tspan><tspan x="26.16" y="22.8">会愈大</tspan><tspan class="cls-7" x="65.4" y="22.8">！</tspan><tspan x="71.94" y="22.8"> </tspan></text>
      </g>
    </g>
  </g>
</svg>