<?xml version="1.0" encoding="UTF-8"?>
<svg id="_圖層_2" data-name="圖層 2" xmlns="http://www.w3.org/2000/svg" xmlns:xlink="http://www.w3.org/1999/xlink" viewBox="0 0 1058.52 231.65">
  <defs>
    <style>
      .cls-1 {
        fill: url(#_未命名漸層_217);
      }

      .cls-2 {
        letter-spacing: -.06em;
      }

      .cls-3 {
        fill: none;
        stroke: #000;
        stroke-dasharray: 0 10;
        stroke-miterlimit: 10;
      }

      .cls-4, .cls-5 {
        fill: #11100e;
      }

      .cls-6 {
        fill: #fdefd4;
      }

      .cls-7 {
        fill: #931212;
        font-family: SourceHanSansCN-Bold-GBpc-EUC-H, 'Source Han Sans CN';
        font-size: 32px;
        font-weight: 700;
      }

      .cls-5 {
        font-family: SourceHanSansCN-Normal-GBpc-EUC-H, 'Source Han Sans CN';
        font-size: 16.1px;
      }

      .cls-8 {
        letter-spacing: -.5em;
      }

      .cls-9 {
        letter-spacing: -.44em;
      }
    </style>
    <linearGradient id="_未命名漸層_217" data-name="未命名漸層 217" x1="529.24" y1="41.06" x2="529.24" y2="91.75" gradientUnits="userSpaceOnUse">
      <stop offset="0" stop-color="#fcdda5"/>
      <stop offset="1" stop-color="#fbbe56"/>
    </linearGradient>
  </defs>
  <g id="hander">
    <g>
      <rect class="cls-1" x="131.67" y="66.1" width="795.13" height="72" rx="21.91" ry="21.91"/>
      <text class="cls-7" transform="translate(420.18 117.45)"><tspan x="0" y="0">+ 查看活动细则</tspan></text>
      <g>
        <rect class="cls-6" x="0" y="0" width="1058.52" height="231.65" rx="86.09" ry="86.09"/>
        <g>
          <text class="cls-5" transform="translate(814.86 151.89) scale(1 1.1)"><tspan x="0" y="0">抽奖结果将于</tspan><tspan x="-67.54" y="28.06">2024年02月09日于活动页面公布</tspan></text>
          <g>
            <path class="cls-4" d="m876.75,53.85h-24.86c-.9,0-1.63-.73-1.63-1.63s.73-1.63,1.63-1.63h24.86c.9,0,1.63.73,1.63,1.63s-.73,1.63-1.63,1.63Z"/>
            <g>
              <path class="cls-4" d="m842.74,78.8c2.47,2.5,3.49,6.26,2.66,10.01,1.24-.1,2.46.06,3.61.46,2.24.79,4.05,2.47,5.1,4.73,1.27,2.74,1.33,6.09.15,9.18-2.05,5.38-7.29,8.6-12.09,7.66l-4.42,11.26c-.26.66-1,.98-1.65.72-.66-.26-.98-1-.72-1.65l4.84-12.32c.25-.64.96-.96,1.61-.74,3.8,1.34,8.31-1.28,10.05-5.84.94-2.45.91-5.08-.08-7.2-.76-1.64-2.05-2.84-3.63-3.4-1.32-.46-2.79-.46-4.24.01-.47.16-1,.02-1.33-.35-.34-.37-.43-.9-.24-1.36,1.78-4.22.4-8.81-3.2-10.69-2.94-1.54-6.67-.8-9.29,1.83-.3.3-.73.43-1.14.35-.42-.08-.77-.36-.93-.75-.75-1.75-2.07-3.03-3.71-3.6-3.8-1.33-8.31,1.28-10.05,5.84-.94,2.45-.91,5.08.08,7.2.76,1.64,2.05,2.84,3.63,3.4.33.11.59.36.74.67.14.31.15.67.03,1l-2.57,6.59c-.26.66-1,.98-1.65.72-.66-.26-.98-1-.72-1.65l2.13-5.45c-1.68-.9-3.04-2.36-3.89-4.2-1.27-2.74-1.33-6.09-.15-9.18,2.23-5.83,8.18-9.13,13.28-7.34,1.81.63,3.33,1.85,4.4,3.5,3.29-2.49,7.53-2.99,11-1.18.91.47,1.71,1.07,2.4,1.77Z"/>
              <path class="cls-4" d="m887.4,78.8c-2.47,2.5-3.49,6.26-2.66,10.01-1.24-.1-2.46.06-3.61.46-2.24.79-4.05,2.47-5.1,4.73-1.27,2.74-1.33,6.09-.15,9.18,2.05,5.38,7.29,8.6,12.09,7.66l4.42,11.26c.26.66,1,.98,1.65.72.66-.26.98-1,.72-1.65l-4.84-12.32c-.25-.64-.96-.96-1.61-.74-3.8,1.34-8.31-1.28-10.05-5.84-.94-2.45-.91-5.08.08-7.2.76-1.64,2.05-2.84,3.63-3.4,1.32-.46,2.79-.46,4.24.01.47.16,1,.02,1.33-.35.34-.37.43-.9.24-1.36-1.78-4.22-.4-8.81,3.2-10.69,2.94-1.54,6.67-.8,9.29,1.83.3.3.73.43,1.14.35.42-.08.77-.36.93-.75.75-1.75,2.07-3.03,3.71-3.6,3.8-1.33,8.31,1.28,10.05,5.84.94,2.45.91,5.08-.08,7.2-.76,1.64-2.05,2.84-3.63,3.4-.33.11-.59.36-.74.67-.14.31-.15.67-.03,1l2.57,6.59c.26.66,1,.98,1.65.72.66-.26.98-1,.72-1.65l-2.13-5.45c1.68-.9,3.04-2.36,3.89-4.2,1.27-2.74,1.33-6.09.15-9.18-2.23-5.83-8.18-9.13-13.28-7.34-1.81.63-3.33,1.85-4.4,3.5-3.29-2.49-7.53-2.99-11-1.18-.91.47-1.71,1.07-2.4,1.77Z"/>
              <path class="cls-4" d="m876.75,90.65h-24.86c-.9,0-1.63-.73-1.63-1.63s.73-1.63,1.63-1.63h24.86c.9,0,1.63.73,1.63,1.63s-.73,1.63-1.63,1.63Z"/>
              <g>
                <path class="cls-4" d="m862.56,67.59c.07.13.16.2.27.2l1.84.02c.22,0,.42-.13.61-.4.16-.35.42-1.02.8-2.02l4.06.05c-.03.26-.08.5-.14.71-.13.5-.33,1.02-.6,1.57-.16.32-.39.68-.69,1.08-.19-.64-.31-1-.35-1.08-.2-.29-.41-.44-.63-.44l-2.02-.03c-.21.08-.31.24-.3.46,0,.06.35,1.18,1.04,3.34-.75.56-1.52,1.04-2.3,1.45-.16.09-.32.21-.47.36-.16.18-.23.32-.23.42v.06s0,.04.02.05c.07.16.25.24.54.24h.04c.37,0,.95-.09,1.74-.29.84-.25,1.52-.5,2.04-.77,2.37-1.2,3.89-2.84,4.58-4.92.3-.86.42-1.92.34-3.19,0-.02-.01-.05-.03-.12-.11-.23-.28-.35-.52-.36l-5.56-.07c.11-.28.17-.43.16-.44.16-.34.23-.56.22-.67v-.02c-.01-.2-.13-.32-.34-.35l-1.81-.02s-.05,0-.08.01c-.26.09-.46.26-.59.52-.94,2.41-1.43,3.66-1.47,3.77-.17.37-.25.61-.24.71v.05c0,.05.02.1.04.14Z"/>
                <path class="cls-4" d="m856.44,67.13l2.02.03c.23-.04.34-.17.32-.39v-.05c0-.07-.27-.9-.78-2.5-.16-.56-.27-.89-.34-.98-.19-.26-.39-.39-.6-.39l-1.95-.03s-.05,0-.08.01c-.2.1-.29.25-.28.44,0,.07.09.36.26.88.5,1.63.77,2.48.81,2.54.21.29.41.44.62.44Z"/>
                <path class="cls-4" d="m859.54,73.18c.11.31.31.47.61.47l1.82.02c.12,0,.21-.02.28-.05.19-.14.28-.3.27-.49-.15-2.63-.35-6.05-.6-10.24,0-.05-.03-.13-.07-.22-.14-.22-.29-.33-.46-.33l-1.99-.03c-.06,0-.13.02-.19.06-.2.15-.3.31-.29.49.15,2.44.35,5.85.6,10.23,0,.02,0,.05.02.09Z"/>
                <path class="cls-4" d="m855.5,72.99l1.99.03c.22,0,.42-.15.59-.45.04-.17.19-1,.47-2.5.22-1.16.33-1.78.33-1.84v-.04c0-.08-.03-.15-.08-.22-.06-.13-.21-.19-.45-.19l-1.72-.02c-.23,0-.4.05-.52.17-.17.18-.25.31-.24.41-.5,2.72-.74,4.11-.74,4.17v.05s.01.08.02.13c.1.21.22.32.36.32Z"/>
                <path class="cls-4" d="m873.62,79.98c-.93-2.06-2.45-2.17-3.78-.32-.05.07-.09.12-.13.18-.03-.03-.06-.05-.09-.08-.36-.34-.78-.78-1.28-1.34-.42-.51-.72-.92-.91-1.23l5.95.08s.06,0,.07,0c.14-.05.21-.16.2-.31l-.05-.91c-.07-.18-.16-.27-.28-.27l-7.72-.1c.18-.71.26-1.12.25-1.25v-.07s-.02-.09-.03-.12c-.11-.27-.27-.41-.5-.42l-2.17-.03c-.2,0-.35.12-.44.36-.13.58-.27,1.07-.42,1.48l-6.82-.09c-.15.06-.22.16-.22.29l.05.95c.07.17.17.26.31.26l5.97.08s0,.01,0,.01c-.2.41-.61,1-1.23,1.76-.53.6-.99,1.06-1.35,1.38-.86.74-1.68,1.32-2.45,1.76-.59.33-.88.63-.86.91,0,.02.01.06.03.12.09.15.27.23.56.23.25,0,.64-.06,1.17-.18.72-.18,1.37-.39,1.94-.63.9-.39,1.65-.81,2.26-1.24.34-.23.76-.58,1.27-1.05.24-.21.6-.61,1.07-1.22.17-.22.36-.51.58-.87h.01c.02.05.15.23.37.52.44.57.99,1.14,1.64,1.73.6.51,1.15.91,1.65,1.22.06.04.12.07.18.11-.33.53-.74.98-.89.39,0,0-.34-.23-.45-.25-.34-.08-.26.83.02,1.09.74.69,1.69.04,2.38-.65.47.23.99.45,1.56.67.08.03.15.05.23.07,1.08.47,1.81.61,2.29.52.02,0,.05,0,.07,0,.21-.03.34-.1.38-.2.65-.57.2-2.06-.38-3.33Zm-2.73.27c.18-.23.4-.41.63-.58.83-.61,2.56,2.37.69,2.06-.35-.23-.7-.47-1.05-.72-.13-.09-.28-.2-.43-.32-.01-.14.03-.29.16-.45Z"/>
              </g>
              <g>
                <path class="cls-4" d="m868.38,40.38h-8.39c-9.66,0-17.51,7.86-17.51,17.51v27.52c0,1.6.23,3.15.64,4.63l3.34-.16c-.47-1.41-.73-2.9-.73-4.46v-27.52c0-7.86,6.39-14.25,14.25-14.25h8.39c7.86,0,14.25,6.39,14.25,14.25v27.52c0,1.67-.3,3.26-.83,4.75h3.42c.43-1.51.67-3.1.67-4.75v-27.52c0-9.66-7.86-17.51-17.51-17.51Z"/>
                <path class="cls-4" d="m868.38,99.66h-8.39c-2.34,0-4.54-.58-6.48-1.58.02.18.03.31.05.34.05.13-.09,1.88-.26,3.16,2.06.86,4.32,1.34,6.69,1.34h8.39c3.14,0,6.08-.84,8.63-2.3l-.68-3.4c-2.27,1.54-5.01,2.43-7.96,2.43Z"/>
              </g>
            </g>
          </g>
          <g>
            <path class="cls-4" d="m755.35,51.18h13.31c.7,0,1.29.33,1.74.98.2.36.31.7.31.99,0,1.68-.03,6.64-.05,14.89,0,.1-.06.23-.19.38-.14.12-.28.18-.42.18h-13.33c-.62,0-1.17-.28-1.64-.85-.25-.41-.38-.78-.38-1.12,0-1.94.02-6.91.05-14.89,0-.1.06-.23.18-.38.14-.12.28-.18.43-.18Zm2.99,1.63c0,.13,0,.44-.01.93,0,1.71-.01,5.94-.04,12.68,0,.08.06.19.17.34.14.14.3.2.46.2h8.14c0-.14,0-.46.01-.97,0-1.49,0-5.7.03-12.63,0-.14-.09-.29-.28-.46-.12-.07-.23-.1-.33-.1h-8.14Z"/>
            <path class="cls-4" d="m774.06,51.18h14.67c.44,0,.68.04.71.13.11.06.19.18.25.36.02.06.03.1.03.11.03,2.46.04,3.89.04,4.29,0,.61-.19,1.25-.56,1.92-.14.26-.37.55-.69.87-.29.27-.57.48-.84.62-.05.03-.18.1-.39.2h0c.42.17.87.47,1.35.93.4.44.68.88.85,1.32.19.5.28.96.28,1.39l-.04,4.69c0,.2-.13.37-.38.53-.1.03-.17.05-.22.05h-15.06c-.21-.03-.32-.13-.32-.32v-1.01c0-.14.1-.24.29-.31h12.08c.02-2.26.03-3.53.03-3.82,0-1.3-.22-2.25-.66-2.84h-11.37c-.19,0-.31-.09-.37-.28v-1.07c.04-.19.14-.28.28-.28,0,0,.04-.01.11-.01h11.41c.05,0,.11,0,.17.03.29-.6.43-1.43.43-2.5,0-.3,0-1.43-.03-3.39h-12.06c-.14,0-.24-.09-.32-.27v-1.04c.03-.21.13-.32.32-.32Z"/>
          </g>
        </g>
        <g>
          <g>
            <path class="cls-4" d="m443.38,46.98h13.31c.7,0,1.29.33,1.74.98.2.36.31.7.31.99,0,1.68-.03,6.64-.05,14.89,0,.1-.06.23-.19.38-.14.12-.28.18-.42.18h-13.33c-.62,0-1.17-.28-1.64-.85-.25-.41-.38-.78-.38-1.12,0-1.94.02-6.91.05-14.89,0-.1.06-.23.18-.38.14-.12.28-.18.43-.18Zm2.99,1.63c0,.13,0,.44-.01.93,0,1.71-.01,5.94-.04,12.68,0,.08.05.19.17.34.14.14.3.2.46.2h8.14c0-.14,0-.46.01-.97,0-1.49,0-5.7.03-12.63,0-.14-.09-.29-.28-.46-.12-.07-.23-.1-.33-.1h-8.14Z"/>
            <path class="cls-4" d="m462.11,46.91h13.22c.4,0,.97,0,1.72.01.2.04.36.11.48.2.18.14.27.3.27.47v4.43c0,.21-.13.42-.38.61-.54.55-3.01,2.99-7.39,7.31-1.89,1.87-2.84,2.81-2.85,2.83h10.29c.15,0,.26.09.33.27v1.04c0,.13-.09.23-.28.32h-15.36c-.24,0-.37-.09-.39-.28h0c0-.17.13-.35.39-.57.65-.66,2.4-2.41,5.23-5.26,2.89-2.91,5.2-5.23,6.9-6.95.08-.12.11-.23.11-.33v-2.14c0-.14-.06-.23-.17-.29-.05-.03-.09-.04-.13-.04h-12c-.17,0-.28-.08-.33-.25v-1.06c.02-.21.12-.32.32-.32Z"/>
          </g>
          <text class="cls-5" transform="translate(461.89 148.37) scale(1 1.1)"><tspan x="0" y="0">入金愈</tspan><tspan class="cls-2" x="48.29" y="0">多</tspan><tspan class="cls-9" x="63.36" y="0">，</tspan><tspan x="72.44" y="0">中奖机会愈大</tspan><tspan class="cls-8" x="169.02" y="0">！</tspan><tspan x="177.06" y="0"> </tspan></text>
          <g>
            <path class="cls-4" d="m557.7,87.7c-4.49,0-8.82-2.45-11.48-6.58-1.02,1.21-2.26,2.18-3.67,2.87-2.72,1.33-5.88,1.46-8.88.38-3.64-1.31-6.72-4.27-8.47-8.12-3.05-6.71-1.27-14.35,3.9-17.87l-6.26-14.13c-.36-.82,0-1.78.83-2.15.82-.37,1.78,0,2.15.83l6.85,15.47c.35.8.01,1.74-.78,2.12-4.63,2.26-6.3,8.71-3.72,14.38,1.39,3.06,3.8,5.39,6.61,6.4,2.17.78,4.42.69,6.35-.25,1.61-.79,2.93-2.12,3.8-3.87.29-.57.88-.93,1.52-.9.64.02,1.2.42,1.45,1.01,2.23,5.4,7.65,8.28,12.59,6.7,4.04-1.29,6.72-5.34,6.68-10.08,0-.54.26-1.05.71-1.36.45-.31,1.02-.37,1.52-.17,2.26.89,4.61.84,6.61-.13,4.63-2.26,6.3-8.71,3.72-14.38-1.39-3.05-3.8-5.39-6.61-6.4-2.17-.78-4.42-.69-6.35.25-.4.19-.86.22-1.27.07-.41-.15-.75-.46-.93-.87l-3.68-8.25c-.37-.82,0-1.78.83-2.15.82-.37,1.78,0,2.15.83l3.04,6.83c2.33-.72,4.87-.64,7.31.24,3.64,1.31,6.72,4.27,8.48,8.12,3.3,7.27.94,15.64-5.26,18.66-2.2,1.07-4.67,1.36-7.13.86-.69,5.23-4.05,9.54-8.81,11.06-1.25.4-2.51.59-3.76.59Z"/>
            <path class="cls-4" d="m549.3,106.96l1.09,1.2c.35.38.85.53,1.31.39.26-.08.57-.2.92-.39l-.17-1.22-2.7-.63s-.09-.01-.14,0h0c-.27.04-.42.36-.31.65Z"/>
            <path class="cls-4" d="m551.63,90.46s.44-.12.79-.97,2.09-1.01,1.89,1l-2.69-.03Z"/>
            <path class="cls-4" d="m553.85,89.87c.2,0,.34.12.43.35.01.05.02.1.02.14v2.74s1.16.02,1.16.02c.13,0,.21.06.25.17.02.04.03.08.03.13v.82c0,.12-.07.21-.22.28l-1.21-.02v6.19s.02,0,.02,0l1.38-.17c.09,0,.16.09.2.25v.96c0,.19-.09.31-.27.35l-1.31.17v2.8c0,1.28-.45,2.27-1.36,2.95-.6.41-1.22.61-1.85.6-.16,0-.27-.06-.32-.16-.01-.02-.02-.05-.02-.08,0-.14.11-.33.34-.57.2-.23.35-.65.45-1.24.06-.39.09-.92.09-1.59v-2.36s-.01,0-.01,0c-.72.09-1.11.13-1.17.13-.08,0-.13-.07-.17-.21v-1.07c0-.13.08-.22.24-.26l1.1-.14v-6.6s-1.07-.02-1.07-.02c-.14,0-.23-.06-.27-.17-.01-.04-.02-.07-.02-.09v-.89c.03-.16.1-.23.21-.23,0,0,.02-.01.07,0l1.08.02v-2.76c0-.21,2.22-.42,2.22-.42Zm8.79-.42c.18,0,.31.13.4.38.01.04.02.08.02.12v.93c0,.61,0,1.47.02,2.59l3.1.06c.26,0,.43.15.51.44,0,.1,0,.17,0,.22l.03,14.18c0,.1-.03.2-.08.29-.1.15-.22.22-.37.22l-9.1-.17c-.2,0-.35-.14-.43-.39-.01-.05-.02-.11-.02-.17l-.03-14.28c0-.21.11-.37.32-.47.02-.01.07-.02.16-.03,1.67.04,2.79.06,3.38.07v-3.48c0-.29.11-.47.36-.54l1.74.03Zm-3.59,5.34v5.12s1.51.03,1.51.03v-5.12s-1.51-.03-1.51-.03Zm.01,6.51c0,1.3.01,2.3.02,3.02v2.81c.04.16.11.24.21.24l1.29.02v-4.29c0-.39-.01-.99-.02-1.78l-1.5-.03Zm4.03-6.44v5.12s1.95.02,1.95.02v-4.86c0-.13-.1-.22-.28-.27l-1.67-.02Zm0,6.51v6.07s1.94.02,1.94.02h.01c0-1.11,0-1.93,0-2.48v-3.59s-1.95-.02-1.95-.02Z"/>
            <path class="cls-4" d="m579.89,102.5c-.24-.4-.67-.61-1.1-.61-.23,0-.46.06-.67.19-.61.37-.79,1.16-.42,1.77.48.78.77,1.86.77,2.88,0,2.87-2.34,5.21-5.21,5.21h-30.29c-2.87,0-5.21-2.34-5.21-5.22,0-1.03.28-1.89.92-2.81.4-.58.26-1.39-.33-1.79-.58-.4-1.39-.26-1.79.33-.93,1.34-1.38,2.74-1.38,4.29,0,4.29,3.49,7.79,7.79,7.79h30.29c4.29,0,7.79-3.49,7.79-7.79,0-1.49-.42-3.03-1.15-4.22Z"/>
            <g>
              <path class="cls-4" d="m545.75,80.47h-.33s.07.06.11.08h-.59c-1.32,0-2.49.6-3.29,1.52-1.14,1.24-1.09,2.73-1.09,2.85v21.8c0,.71.58,1.29,1.29,1.29s1.29-.58,1.29-1.29v-21.8c0-.99.81-1.8,1.8-1.8l2.92-.05-2.11-2.6Z"/>
              <path class="cls-4" d="m571.29,80.55h-2.35c-.46.99-1.27,1.98-1.79,2.57h4.14c.99,0,1.8.81,1.8,1.8v21.8c0,.71.58,1.29,1.29,1.29s1.29-.58,1.29-1.29v-21.8c0-2.41-1.96-4.38-4.38-4.38Z"/>
            </g>
          </g>
        </g>
        <g>
          <text class="cls-5" transform="translate(133.58 139.45) scale(1 1.1)"><tspan x="0" y="0">活动期间净入金达到要求</tspan><tspan x="-8.05" y="28.06">即可获得相应数量抽奖机会</tspan></text>
          <g>
            <path class="cls-4" d="m125.38,40.38h13.31c.7,0,1.29.33,1.74.98.2.36.31.7.31.99,0,1.68-.03,6.64-.05,14.89,0,.1-.06.23-.19.38-.14.12-.28.18-.42.18h-13.33c-.62,0-1.17-.28-1.64-.85-.25-.41-.38-.78-.38-1.12,0-1.94.02-6.91.05-14.89,0-.1.06-.23.18-.38.14-.12.28-.18.43-.18Zm2.99,1.63c0,.13,0,.44-.01.93,0,1.71-.01,5.94-.04,12.68,0,.08.05.19.17.34.14.14.3.2.46.2h8.14c0-.14,0-.46.01-.97,0-1.49,0-5.7.03-12.63,0-.14-.09-.29-.28-.46-.12-.07-.23-.1-.33-.1h-8.14Z"/>
            <path class="cls-4" d="m145.77,40.39h1.9c.32,0,.59.14.79.41.04.07.06.14.06.22,0,4.19.01,9.59.01,16.18,0,.18-.15.35-.46.52-.14.05-.28.08-.39.08h-1.88c-.36,0-.63-.14-.81-.42-.03-.09-.05-.17-.05-.24v-9.78c0-1.66,0-3.78-.01-6.37,0-.14.09-.29.28-.43.19-.11.38-.17.57-.17Z"/>
          </g>
          <g>
            <path class="cls-4" d="m246.45,66.41c-11.91,0-21.6-9.69-21.6-21.6,0-.9.73-1.63,1.63-1.63s1.63.73,1.63,1.63c0,10.11,8.23,18.34,18.34,18.34s18.34-8.23,18.34-18.34c0-.9.73-1.63,1.63-1.63s1.63.73,1.63,1.63c0,11.91-9.69,21.6-21.6,21.6Z"/>
            <path class="cls-4" d="m206.29,66.41c-11.91,0-21.6-9.69-21.6-21.6,0-.9.73-1.63,1.63-1.63s1.63.73,1.63,1.63c0,10.11,8.23,18.34,18.34,18.34s18.34-8.23,18.34-18.34c0-.9.73-1.63,1.63-1.63s1.63.73,1.63,1.63c0,11.91-9.69,21.6-21.6,21.6Z"/>
          </g>
          <path class="cls-4" d="m240.26,108.06h-27.78c-3.78,0-6.86-3.08-6.86-6.86v-36.63h3.26v36.63c0,1.99,1.62,3.6,3.6,3.6h27.78c1.99,0,3.6-1.62,3.6-3.6v-36.63h3.26v36.63c0,3.78-3.08,6.86-6.86,6.86Z"/>
          <g>
            <path class="cls-4" d="m217.14,71.6h2.37c.22,0,.38.14.48.43,0,.05.01.08.01.11v.06c0,.06-.15.65-.44,1.76h3.2c.23,0,.37.08.42.25,0,.02.01.04.01.07v1.16c0,.14-.09.24-.26.3-.05,0-.09.01-.12.01h-3.68s-.09.22-.18.65c-.02.04-.29,1.06-.8,3.07-.25.4-.55.6-.9.6h-2.24c-.25,0-.42-.12-.53-.35-.02-.06-.03-.12-.03-.15v-.03c0-.08.2-.88.6-2.39.82-3.2,1.26-4.88,1.33-5.05.22-.33.48-.5.78-.5Zm-1.84,8.91h7.53c.19,0,.31.11.36.32v1.12c0,.17-.09.28-.26.35h-2.56c0,2.55-.01,4.35-.01,5.41h2.49c.23.02.35.13.35.33v1.12c-.05.21-.17.32-.36.32h-2.48c0,2.24-.01,3.78-.01,4.61,0,.3.18.53.53.66h.15s1.16.01,1.16.01c.16,0,.27.1.33.3v1.13c0,.15-.1.26-.29.33h-3.56c-.7,0-1.26-.32-1.67-.95-.23-.4-.35-.81-.35-1.23v-4.87h-1.38c-.16,0-.27-.1-.35-.29,0,0-.01-.04-.01-.08v-1.02c0-.18.09-.3.26-.37h1.49v-4.75c0-.13,0-.35.01-.66h-1.43c-.15,0-.26-.1-.33-.3,0,0-.01-.04-.01-.08v-1.02c0-.22.13-.35.4-.37Zm11.32-8.91h2.55c.33,0,.55.19.65.57.09,1.32.2,2.47.33,3.45,0,0,.02.07.04.22h7.93c.2,0,.33.08.39.25,0,.02.01.04.01.07v1.12c0,.17-.09.28-.28.35-.06,0-.1.01-.14.01h-7.64c.21,1.22.47,2.39.76,3.53h6.99c.14,0,.24.09.3.28v1.18c0,.14-.1.24-.29.32h-6.52c.53,1.69,1.08,3.19,1.66,4.5,0,.02,0,.03.03.03.65-1.03,1.19-2.02,1.63-2.95.15-.19.32-.29.53-.29h2.31c.29,0,.49.16.62.48.02.06.03.12.03.15v.06c-.04.32-.26.95-.68,1.9-.32.7-.75,1.46-1.29,2.28-.34.51-.81,1.12-1.4,1.83.55.97,1.27,2.03,2.16,3.2.72.84,1.09,1.37,1.12,1.58.06.11.08.24.08.39,0,.21-.12.36-.37.44-.07,0-.13.01-.18.01h-.01c-.54,0-1.38-.47-2.5-1.4-.27-.18-.85-.73-1.76-1.65-.34-.38-.52-.57-.53-.57-.82.72-1.62,1.32-2.41,1.81-1.96,1.2-3.79,1.8-5.51,1.8h-.06c-.55,0-.9-.09-1.04-.28-.03-.06-.04-.11-.04-.14,0-.32.6-.83,1.79-1.51.42-.27.89-.58,1.44-.94.72-.49,1.53-1.13,2.44-1.91.97-.92,1.45-1.41,1.45-1.47-1.03-1.6-1.93-3.39-2.7-5.37-.21-.59-.44-1.25-.68-1.99h-3.51c-.2,0-.34-.09-.42-.28v-.07s-.01-1.07-.01-1.07c0-.19.11-.31.32-.36h3.11c-.29-1.09-.54-2.26-.75-3.53h-2.2c-.23,0-.38-.08-.46-.25-.02-.06-.03-.09-.03-.11v-1.05c0-.18.1-.31.3-.37.04,0,.08-.01.12-.01h1.96c-.22-1.95-.33-3.15-.33-3.61,0-.22.13-.42.4-.58.09-.03.18-.04.25-.04Zm6.23,0h2.62c.32,0,.58.22.78.65.42,1.63.62,2.47.62,2.5v.06c0,.25-.16.42-.47.51-.06,0-.12.01-.18.01h-2.44c-.38,0-.65-.2-.82-.61-.43-1.63-.65-2.49-.65-2.57,0-.28.15-.46.44-.54.04,0,.07-.01.1-.01Z"/>
            <path class="cls-4" d="m234.88,93.57c.04,1.12,1.35,2.35,1.86,2.63,5.15,2.92,4.92-.41,4.13-3.05s-2.75-2.93-4.93-.94c-1.26,1.15-1.08.78-1.06,1.36Zm2.31-.51c.29-.24.62-.42.96-.59,1.35-.66,3.17,3.91-.29,2.27-.01-.07-1.66-.87-.67-1.68Z"/>
            <path class="cls-4" d="m236.64,93.94s-2.85,3.57-4.49,2.13c-.36-.31-.39-1.4.06-1.31.15.03.58.29.58.29.29,1.29,1.96-1.61,1.96-1.61l1.89.5Z"/>
            <path class="cls-4" d="m224.46,94.08l-1.1,1.65c-.35.53-.96.83-1.59.79-.35-.02-.79-.08-1.29-.19l-.1-1.42,3.33-1.44c.06-.02.12-.04.18-.04h0c.36-.02.64.3.57.65Z"/>
          </g>
        </g>
        <line class="cls-3" x1="387.78" y1="42.22" x2="387.78" y2="191.3"/>
        <line class="cls-3" x1="700.04" y1="42.22" x2="700.04" y2="191.3"/>
      </g>
    </g>
  </g>
</svg>