<?xml version="1.0" encoding="utf-8"?>
<!-- Generator: Adobe Illustrator 24.1.0, SVG Export Plug-In . SVG Version: 6.00 Build 0)  -->
<svg version="1.1" id="圖層_1" xmlns="http://www.w3.org/2000/svg" xmlns:xlink="http://www.w3.org/1999/xlink" x="0px" y="0px"
	 viewBox="0 0 332 61" style="enable-background:new 0 0 332 61;" xml:space="preserve">
<style type="text/css">
	.st0{fill:#E50B16;}
	.st1{fill:#050000;}
</style>
<g>
	<g>
		<path class="st0" d="M34.4,6.2v16.11h-8.76c0,0,0-7.16,0-9.33c0-2.07,5.37-7.06,5.37-7.06s-7.35,0-12.15,0
			c-4.8,0-11.59,4.24-11.59,9.89c0,5.65,0,39.28,0,39.28h17.8V38.98h9.04v7.63c0,0-0.28,4.8-5.65,8.48c0,0,9.32,0,13,0
			c3.67,0,10.46-1.13,10.46-9.32c0-8.2,0-39.56,0-39.56H34.4z M47.97,43.22c0,3.67,0,7.91-5.93,7.91c-3.06,0-4.17,0-4.52,0
			c-0.11,0-0.14,0-0.15,0c0,0,0.04,0,0.15,0c0,0,1.04-2.54,1.04-3.2c0-0.66,0-13.56,0-13.56H21.31v16.48h-9.7c0,0,0-32.5,0-35.7
			c0-3.2,4.33-5.28,7.16-5.28c2.83,0,3.77,0,3.77,0s-1.13,1.7-1.13,3.2c0,1.51,0,13.37,0,13.37h17.52V10.44h9.04
			C47.97,10.44,47.97,39.54,47.97,43.22z"/>
	</g>
	<path class="st1" d="M208.45,33.18c0-3.27-0.84-6.48-2.51-9.61c-0.11-0.19-0.16-0.4-0.16-0.62c0-0.08,0.03-0.29,0.08-0.62
		c0.71-2.28,1.66-5.16,2.84-8.62c0.03-0.25,0.06-0.33,0.08-0.33c0-1.43-0.66-2.11-1.97-2.11h-4.93h-1.19
		c-1.95,0-2.69,0.93-2.69,2.93v34c0,0.07,0.01,0.12,0.01,0.18v1.45h3.3v-8.48c0.55,0.14,0.97,0.2,1.33,0.2
		c1.75,0,3.12-0.8,4.25-2.39C207.97,37.62,208.45,35.63,208.45,33.18z M204.42,36.81c-0.49,0.96-0.94,1.44-1.63,1.44
		c-0.33,0-0.95-0.1-1.49-0.29v-4.51h-0.01V15.32c0-0.63,0.06-0.74,0.75-0.74h2.63c0.22,0,0.33,0.05,0.33,0.35
		c0,0.08-0.04,0.14-0.12,0.28c-0.82,2.61-1.58,4.91-2.26,6.95c-0.08,0.36-0.12,0.62-0.12,0.81c0,0.55,0.14,1.08,0.41,1.6
		c1.51,2.89,2.26,5.76,2.26,8.62C205.16,34.67,204.92,35.88,204.42,36.81z"/>
	<path class="st1" d="M232.94,35.11h0.02v-1.8h-1.41c-0.03,0-0.05-0.01-0.08-0.01h-19.06c-0.96,0-1.47,0.68-1.52,1.76
		c0,0.01,0,0.03,0.01,0.04h-0.02v1.47h1.18c0.11,0.02,0.23,0.03,0.36,0.03h8.16v8.43c0,1.02-0.64,1.53-1.6,1.53
		c-0.88-0.06-3.06-0.5-4.18-1.32c-0.11-0.03-0.25-0.04-0.33-0.04c-0.96,0.06,3.4,4.44,4.36,4.44c3.29,0,5.05-0.99,5.05-3.41V36.6
		h7.6C232.38,36.6,232.87,35.98,232.94,35.11z"/>
	<path class="st1" d="M226.56,26.69h-0.96h-8.47c-0.85,0-1.31,0.53-1.39,1.51h-0.01v1.79h1.4h0.9h8.53c0.9-0.14,1.32-0.61,1.37-1.65
		c0-0.08-0.01-0.16-0.02-0.24v-1.42H226.56z"/>
	<path class="st1" d="M230.82,22.95c1.47-2.61,2.42-4.73,2.88-6.35c0.37-1.35,0.58-2.36,0.64-2.93c0-0.16-0.01-0.3-0.03-0.44v-1.96
		h-2.27H232h-4.79c-0.88,0-1.34,0.54-1.4,1.51h-0.04v1.79h1.44h0.87h2.35c0.46,0,0.68,0.19,0.68,0.6c0,0.33-0.21,0.94-0.64,1.85
		c-0.4,1.07-1.14,2.4-2.21,4c-0.78-0.93-1.39-1.85-1.85-2.73c-0.83-1.46-1.85-4.87-1.96-6.93c0-0.03-0.01-0.06-0.02-0.09h-3.07
		c0,0.03-0.01,0.06-0.01,0.09c0.27,2.48,1.33,6.16,2.08,7.76c0.83,1.73,2.02,3.42,3.58,5.07c1.45,1.6,3.38,3.2,5.5,4.83
		c0.41,0.25,1.28,0.62,1.83,0.89v-3.57c-1.65-1.2-2.95-2.2-3.8-3.01C230.67,23.21,230.68,23.09,230.82,22.95z"/>
	<path class="st1" d="M207.35,23.08v-0.06c-0.02,0.01-0.05,0.03-0.07,0.04C207.27,23.06,207.35,23.07,207.35,23.08z"/>
	<path class="st1" d="M207.45,19.65c-0.1,0.08-0.1,0.16-0.1,0.26v3.11c0.39-0.21,1.74-1.06,2.12-1.27c0.09-0.05,0.13-0.11,0.21-0.17
		c0.03,0.06,0.04,0.11,0.06,0.17c0.66,0.52,1.18,0.98,1.59,1.36c0.41,0.36,0.8,0.78,1.19,1.28c-0.9,0.72-1.8,1.44-2.97,2.19
		c-0.05,0.04,0,0.08,0,0.13v3.8c0.55-0.24,1.59-0.77,2.25-1.16c2.71-1.98,4.62-3.92,5.99-5.82c1.45-1.95,2.39-3.99,2.93-6.11
		c0.41-1.57,0.58-3,0.58-4.38c0-1.21-0.86-1.78-2.5-1.78h-5.63h-1.71c-0.13,0.33-0.25,0.86-0.39,1.69c-0.3,1.79-0.74,3.05-1.32,3.82
		C209.16,17.8,208.49,18.74,207.45,19.65z M213.63,15.05c0.16-0.38,0.45-0.48,0.86-0.48h3.17c0.22,0,0.33-0.01,0.33,0.19
		c0,0.69-0.14,1.53-0.41,2.63c-0.33-0.27-0.67-0.53-1.03-0.73c-0.58-0.33-1.3-0.71-2.18-1.13c-0.27-0.14-0.55-0.19-0.82-0.24
		C213.58,15.21,213.6,15.16,213.63,15.05z M211.99,19.03c0.19-0.27,0.37-0.58,0.53-0.91c0.6,0.28,1.11,0.54,1.52,0.78
		c0.55,0.36,1.15,0.76,1.81,1.2c0.11,0.08,0.23,0.15,0.37,0.21c-0.27,0.5-0.58,0.95-0.9,1.36c-0.08,0.11-0.19,0.23-0.33,0.37
		c-0.38-0.44-0.75-0.84-1.11-1.2c-0.44-0.41-0.99-0.87-1.64-1.36c-0.14-0.05-0.27-0.11-0.41-0.17
		C211.88,19.24,211.93,19.14,211.99,19.03z"/>
	<path class="st1" d="M255.51,45.84c-0.12-0.71-0.98-5.53-5.7-8.64c-0.89,0.84-2.02,2.11-2.89,3.04
		C248.55,41,254.97,45.21,255.51,45.84z"/>
	<path class="st1" d="M263.8,45.82c0.71-0.12,5.53-0.98,8.64-5.7c-0.84-0.89-2.11-2.02-3.04-2.89
		C268.63,38.85,264.43,45.28,263.8,45.82z"/>
	<path class="st1" d="M168.44,39.9c-0.45,0.56-4.27,4.68-10.42,5c-0.35-1.17-0.76-2.8-1.05-4.04
		C158.76,41.01,167.66,40.18,168.44,39.9z"/>
	<path class="st1" d="M226.21,38.33c0.71,0.12,5.53,0.98,8.64,5.7c-0.84,0.89-2.11,2.02-3.04,2.89
		C231.05,45.29,226.84,38.87,226.21,38.33z"/>
	<path class="st1" d="M217.71,38.33c-0.71,0.12-5.53,0.98-8.64,5.7c0.84,0.89,2.11,2.02,3.04,2.89
		C212.87,45.29,217.08,38.87,217.71,38.33z"/>
	<path class="st1" d="M259.73,11c-0.96,0.65-7,5.8-10.11,7.44c-1.9,0.97-3.73,1.97-7.58,3.08v3.95c2.75-0.86,5.33-2.05,7.1-2.77
		c-0.43,0.28-0.5,0.73-0.5,1.4v1.49h0.56c0.08,0,0.16,0,0.25,0h9.1v6.38l-13.53-0.02c-1.12,0-1.37,0.76-1.39,1.85
		c0,0.13-0.01,0.34-0.01,0.45v0.98h0.79c0.02,0,0.04,0,0.06,0h14.08v11.16l-15.5,0.02c-1.01,0-1.49,0.57-1.55,1.63
		c0,0.02-0.04,1.77-0.04,1.77h2.03h33.31c0.9,0,1.44-0.73,1.49-1.65c-0.01-0.16,0.08-0.49,0.08-0.63v-1.14l-16.52,0V35.22h12.8
		c0.87,0,1.8-0.23,1.86-1.26c0-0.07,0.01-0.37,0.01-0.37v-1.65h-1.32c-0.1,0-0.21,0-0.33,0h-13.02v-6.36h8.38
		c1.1,0,2.02-0.51,2.08-1.57c-0.01-0.12,0-0.13,0-0.24v-0.71c1.65,0.72,4.41,1.76,6.06,2.44v-3.95c-3.85-1.4-6.98-3.26-8.94-4.31
		C266.69,15.84,260.28,11.35,259.73,11z M270.25,22.28h-20.79c-0.2,0-0.39,0.1-0.56,0.13c0.98-0.36,1.83-0.7,2.55-1.09
		c2.82-1.45,5.37-2.97,7.65-5.06c0.17-0.22,0.48-0.32,0.91-0.32c0.14,0,0.3,0.05,0.48,0.13c1.96,1.92,4.31,3.33,7.05,4.83
		c0.95,0.47,1.96,0.83,3.03,1.38C270.47,22.28,270.37,22.28,270.25,22.28z"/>
	<g>
		<path class="st1" d="M169.91,34.44v-7.4c0-0.05,0-0.08,0-0.13v-2.42h-2.28c-0.08,0-0.15,0-0.24,0h-7.94
			c-1.73,0-2.76,0.75-2.76,2.55v6.26v3.85h10.7C169.12,37.15,169.91,36.3,169.91,34.44z M166.6,33.06c0,0.6-0.01,0.79-0.53,0.79
			h-5.27c-0.58,0-0.81-0.18-0.81-0.79v-4.6c0-0.6,0.23-0.67,0.81-0.67h5.27c0.52,0,0.53,0.07,0.53,0.67V33.06z"/>
		<path class="st1" d="M155.37,11.27c-2.63,0-4.19,1.33-4.19,4.11v34.44h32.96c2.63,0,3.94-1.6,3.94-4.32V11.27H155.37z
			 M184.77,44.98c0,0.92-0.37,1.53-1.25,1.53h-27.53c-0.88,0-1.5-0.61-1.5-1.53V15.89c0-0.95,0.62-1.32,1.5-1.32h18.75h0.4
			c-0.32,0.35-0.63,0.68-0.91,0.98c0.94,0.44,3.5,2.04,5.58,3.43h-5.08v-0.01h-0.77c-0.03-1.1-0.04-1.67-0.04-2.53
			c-0.03-0.95-0.5-1.5-1.57-1.59c-0.96,0.09-1.36,0.56-1.36,1.51c0,0.83,0,1.51,0,2.61h-12.67c-0.96,0-1.62,0.52-1.64,1.64
			c0,0.1-0.01,0.1-0.01,0.19v1.47h2.75h11.49c0.11,2.2,0.29,4.76,0.54,6.51c0.38,3.33,1.07,6.48,2.06,9.58
			c-0.16,0.23-0.33,0.44-0.49,0.7c-0.85,1.12-1.7,2.1-2.66,2.96c-0.85,0.85-0.44,0.45-1.35,1.36c-1.48,1.45-2.55,1.92-0.79,1.72
			c0.41-0.03,2.46-0.46,2.93-0.66c1.51-0.55,3.01-1.48,3.78-2.48c0.58,1.2,1.21,2.18,1.89,2.93c0.55,0.6,1.14,0.9,1.77,0.9
			c6.23-0.57,3.9-9.99,3.79-9.02c-0.25,2.09-1.69,3.77-2.68,4.89c-0.33,0.34-0.7,0.52-1.11,0.52c-0.25,0-0.44-0.16-0.58-0.47
			c-0.38-0.63-0.76-1.48-1.11-2.54c0.66-1.09,1.26-2.35,1.81-3.79c0.99-2.41,1.76-5.71,2.31-9.9c-0.06-0.97-0.59-1.49-1.61-1.55
			c-0.91,0.09-1.4,0.6-1.48,1.55c-0.44,3.24-1.13,6.07-2.06,8.48c-0.11,0.23-0.21,0.45-0.29,0.65c-0.36-1.58-0.65-3.21-0.86-5.13
			c-0.27-2.01-0.49-4.44-0.66-7.2h7.98c0.74-0.09,1.57-0.58,1.63-1.52c0-0.04,0-0.13,0-0.13v-1.65h-0.97v0.01h-0.47
			c-0.47-1.26-1.29-2.88-2.69-4.41h3.17h0.82c0.88,0,1.25,0.37,1.25,1.32V44.98z"/>
	</g>
	<g>
		<path class="st1" d="M92.45,29.72c2.16,0,3.67-0.82,3.67-3l-0.03-6.85l-3.27-0.06v0.01c0-0.01-0.22-0.01-0.37-0.01H67.77
			c-2.17,0-3.59,0.89-3.59,3.08v6.84H92.45z M68.03,24.19c0-0.63,0.05-1.1,0.67-1.1h22.73c0.68,0,0.83,0.47,0.83,1.1v1.19
			c0,0.63-0.16,1.03-0.83,1.03H68.71c-0.62,0-0.67-0.4-0.67-1.03V24.19z"/>
		<path class="st1" d="M97.3,14.85H83.27c-0.65-1.17-1.78-2.52-3.79-3.84c-0.89,0.84-2.02,2.11-2.89,3.04
			c0.38,0.18,0.99,0.47,1.68,0.81H63.56c-0.92,0-1.5,0.55-1.58,1.65v1.65h1.58h0.87H97.3c0.93,0,1.47-0.56,1.52-1.52l0.05,0v-1.79
			h-1.48C97.36,14.85,97.34,14.85,97.3,14.85z"/>
		<path class="st1" d="M113.81,23.08c-0.12-0.71-0.98-5.53-5.7-8.64c-0.89,0.84-2.02,2.11-2.89,3.04
			C106.84,18.24,113.27,22.45,113.81,23.08z"/>
		<path class="st1" d="M142.92,45.96h-12.11V41h7.68h0.14h1.35c0.8,0,1.22-0.37,1.27-1.19c-0.01-0.11,0.01-0.58,0-1l0.03-0.01v-1.1
			h-10.46v-2.46h6.08h0.83h0.66c0.8,0,1.22-0.46,1.27-1.29c-0.01-0.11-0.01-0.35-0.02-0.59v-1.18h-0.01v-0.25h-8.81v-2.16h0.04h2.44
			h5.3h0.83h0.66c0.8,0,1.22-0.46,1.27-1.29c-0.01-0.13-0.02-0.48-0.03-0.76l0-0.02v-1.24h-5.56l1.36-4.2h1.38h1.1h0.38
			c0.8,0,1.22-0.37,1.27-1.19c-0.01-0.11,0.03-2.11,0.03-2.11h-10.46v-2.2h7.89c0.86,0,1.34-0.55,1.44-1.65h0.03v-1.65h-0.96
			c-0.1,0-0.21,0-0.33,0h-8.08v-0.82c0-1.07-0.41-1.61-1.44-1.64c-0.07,0-0.24,0.01-0.24,0.02c0-0.01-0.15-0.02-0.22-0.02
			c-1.03,0.03-1.41,0.57-1.41,1.64v0.82h-7.91c-0.91,0-1.39,0.55-1.46,1.65h0v1.65h1.18c0.02,0,0.03,0,0.05,0h8.13v2.2h-7.74h-0.14
			h-1.35c-0.8,0-1.22,0.46-1.27,1.29c0.01,0.11,0.02,0.38,0.03,0.63l0,1.39h4.11l1.36,4.2h-2.76h-0.83h-0.66
			c-0.8,0-1.22,0.46-1.27,1.29c0.01,0.13,0.02,0.48,0.03,0.76l0,0.02v1.24h10.49v2.16h-6.11h-0.83h-0.66c-0.8,0-1.22,0.46-1.27,1.29
			c0.01,0.13,0.02,0.48,0.03,0.76l0,0.02v1.24h8.83v2.46h-7.74h-0.83h-0.66c-0.8,0-1.22,0.46-1.27,1.29
			c0.01,0.13,0.02,0.48,0.03,0.76l0,0.02V41h10.46v4.96h-4.18c-2.76,0-5.08-0.39-6.85-1.29c-1.34-0.66-2.55-2.43-3.1-3.75l0-0.01
			c-0.03-3.02-0.69-3.1-2.32-6.15c-0.11-0.19-0.16-0.4-0.16-0.62c0-0.08,0.03-0.29,0.08-0.62c0.71-2.28,1.66-2.63,2.84-6.1
			c0.03-0.25,0.06-0.33,0.08-0.33c0-1.43-0.66-2.11-1.97-2.11h-4.93h-0.42v3.41c0.11-0.08,0.28-0.1,0.58-0.1l3.17-0.03
			c0.22,0-0.21,0.08-0.21,0.39c0,0.08-0.04,0.14-0.12,0.28c-0.82,2.61-1.58,2.38-2.26,4.42c-0.08,0.36-0.12,0.62-0.12,0.81
			c0,0.55,0.14,1.08,0.41,1.6c1.51,2.89,2.26,2.76,2.26,5.62c0,0.65-0.06,1.24-0.15,1.78c-0.23,0.49-0.59,0.96-1.06,1.41
			c-0.54,0.59-1.38,1.34-2.48,1.87v3.37c1.1-0.09,3.3-1.35,3.88-1.9c0.74-0.66,1.39-1.49,1.97-2.45c1.05,1.45,2.54,2.41,4.46,3.01
			c1.76,0.57,3.96,0.8,6.59,0.8h16.11h1.15h0.68c0.93,0,1.42-0.58,1.47-1.54c-0.01-0.1,0-0.31-0.01-0.53l0.04-0.04V45.96z
			 M125.66,26.48l-1.36-4.2h4.82h4.82l-1.36,4.2h-1.74H125.66z"/>
		<path class="st1" d="M93.72,31.6l-2,0.06l-26.22,0.01c-0.8,0-1.22,0.46-1.27,1.29c0.01,0.13,0.02,0.48,0.03,0.76l0,0.02v1.24
			l25.15-0.02c-3.25,1.01-5.74,2.12-10.67,3.21c-0.97,0.22-1.26,0.6-1.26,1.42c0.03,0.22,0.49,1.12,0.81,1.28
			c1.23,0.68,3.13,2.05,3.13,2.87c0,0.96-0.15,1.51-0.75,1.98c-0.63,0.46-1.48,0.7-2.56,0.7c-1.46,0-5.32-0.64-7.58-1.25v2.72
			c1.8,1.29,5.37,1.81,6.46,1.81c2.6,0,4.65-0.51,6.01-1.52c1.31-1.04,2-2.57,2-4.59c0-0.93-1.54-2.51-2.48-3.2
			c5.13-1.26,8.96-3.15,11.47-4.21c0.25-0.12,0.59-0.23,1.6-0.86C96.79,34.56,96.67,31.55,93.72,31.6z"/>
	</g>
	<g>
		<path class="st1" d="M287.36,14.59h3.39v-0.02h14.43c0.81,0,1.27-0.53,1.39-1.36h-0.01v-1.95h-17.75c-0.86,0-1.33,0.59-1.43,1.51
			h-0.02v0.17c0,0.01,0,0.02,0,0.03c0,0.01,0,0.02,0,0.03V14.59z"/>
		<path class="st1" d="M318.26,40.1c0.22,0.36,0.86,2.48,1.47,4.71c-0.92,0.38-1.33,0.44-2.33,0.6v-8.26h2.53c0,0,0,0,0.01,0
			c1.5,0,3.13-1.56,3.13-3.17l-0.04-14.41v-3.34l-0.8,0l0,0h-3.61l-1.04,0v0h-0.18v-3.18c0-1.07-0.59-1.61-1.54-1.64
			c-0.98,0.03-1.54,0.57-1.54,1.64v3.18h-2.51c-1.5,0-3.13,1.56-3.13,3.17v14.38l-0.01,0.03v3.34l5.65,0.01v8.59
			c-1.54,0.22-3.56,0.35-5.47,0.41c-0.06,0.01-0.18,0.06-0.18,0.14v3.09c0,0.12,0.55,0.21,0.65,0.22c4.57-0.25,7.28-0.68,10.97-1.31
			c0.09-0.03,0.21-0.05,0.29-0.08c0.18,0.78,0.31,1.42,0.36,1.8c1.15-0.54,2.71-1.23,3.78-1.82
			C323.22,42.73,318.89,40.43,318.26,40.1z M317.4,18.98h1.55c0.59,0,1.21,0.09,1.21,0.7v13.15c0,0.63-0.66,1.56-1.26,1.56h-1.32v0
			h-0.18V18.98z M314.32,34.4h-1.48c-0.6,0-1.26-0.08-1.26-0.7V20.54c0-0.63,0.66-1.56,1.26-1.56h1.48V34.4z"/>
		<path class="st1" d="M302.69,16.23c-0.05,0-0.09-0.01-0.14-0.01h-11.12c-1.94,0-3.14,0.98-3.14,2.92v4.07v0.4v3.07h2.99
			c0.05,0,0.1,0.01,0.15,0.01h11.12c1.97,0,2.81-1.11,2.81-3.08v-4.47c0-0.03,0-0.05,0-0.08v-2.83H302.69z M302.06,22.42
			c0,0.68-0.13,0.96-0.8,0.96h-8.57c-0.62,0-1.09-0.28-1.09-0.96v-2.13c0-0.63,0.47-1.31,1.09-1.31h8.57c0.67,0,0.8,0.68,0.8,1.31
			V22.42z"/>
		<path class="st1" d="M307.01,27.79h-3.12h-0.3h-13.77c-1.97,0-3.17,0.87-3.17,2.87v17.21c0,0.09,0.01,0.16,0.02,0.24v1.69h3.28
			v-1.75c0-0.06,0.01-0.12,0.01-0.18V37.49c0,0.03,0.27,0.04,0.38,0.04c1.37-0.25,2.54-0.71,3.4-1.39c0.59-0.44,1.07-0.96,1.4-1.56
			c0.24-0.46,0.42-1,0.5-1.6c0.08-0.46,0.13-1.12,0.13-1.69c0-0.22-0.01-0.2-0.03-0.75h2.02c-0.03,0-0.08,0.34-0.08,0.4v3.15
			c0,1.63,1.37,3.06,3,3.06h-8.29c-0.4,0.03-1.39,0.61-1.44,1.67c0,0.04,0,0.13,0,0.17v1.47h3.39v-0.01h0.59v5.28
			c0,0.04,0.01,0.08,0.01,0.12h3.28c0-0.04,0.01-0.08,0.01-0.12v-5.28h2.89c0.94,0,1.43-0.64,1.46-1.57c0-0.05-0.01-0.08-0.01-0.13
			v-1.59h-1.41c-0.01-0.01-0.02-0.01-0.03-0.02h2.62v8.42c0,0.66-0.36,0.98-0.92,0.98c-0.48,0-1.39-0.23-2.62-0.7
			c-0.27-0.08-0.5-0.12-0.67-0.12c-0.86,0.19,2.42,4.04,3.71,4.1c3.81,0.16,3.81-3.29,3.81-3.29c0-0.11,0-0.21,0-0.32V30.65
			c0-0.04-0.01-0.07-0.01-0.11V27.79z M293.05,30.97c0,0.57-0.04,1.05-0.12,1.3c-0.08,0.38-0.26,0.8-0.53,1.18
			c-0.19,0.27-0.58,0.56-0.99,0.84c-0.4,0.19-0.92,0.34-1.47,0.43V31.8c0-0.66,0.5-1.26,1.12-1.26h2.02
			C293.07,30.54,293.05,30.86,293.05,30.97z M303.72,33.84h-2.29c-0.62,0-1.01-0.26-1.01-0.94v-1.97c0-0.05,0-0.4,0-0.4h2.14
			c0.67,0,1.16,0.6,1.16,1.26V33.84z"/>
	</g>
</g>
</svg>
